HIERARCHY
ROOT Hips
{
	OFFSET 0.000000 0.000000 0.000000
	CHANNELS 6 Xposition Yposition Zposition Zrotation Yrotation Xrotation 
	JOINT LHipJoint
	{
		OFFSET 0.000000 0.000000 0.000000
		CHANNELS 3 Zrotation Yrotation Xrotation
		JOINT LeftUpLeg
		{
			OFFSET 1.363060 -1.794630 0.839290
			CHANNELS 3 Zrotation Yrotation Xrotation
			JOINT LeftLeg
			{
				OFFSET 2.448110 -6.726130 0.000000
				CHANNELS 3 Zrotation Yrotation Xrotation
				JOINT LeftFoot
				{
					OFFSET 2.562200 -7.039590 0.000000
					CHANNELS 3 Zrotation Yrotation Xrotation
					JOINT LeftToeBase
					{
						OFFSET 0.157640 -0.433110 2.322550
						CHANNELS 3 Zrotation Yrotation Xrotation
						End Site
						{
							OFFSET 0.000000 0.000000 0.000000
						}
					}
				}
			}
		}
	}
	JOINT RHipJoint
	{
		OFFSET 0.000000 0.000000 0.000000
		CHANNELS 3 Zrotation Yrotation Xrotation
		JOINT RightUpLeg
		{
			OFFSET -1.305520 -1.794630 0.839290
			CHANNELS 3 Zrotation Yrotation Xrotation
			JOINT RightLeg
			{
				OFFSET -2.542530 -6.985550 0.000000
				CHANNELS 3 Zrotation Yrotation Xrotation
				JOINT RightFoot
				{
					OFFSET -2.568260 -7.056230 0.000000
					CHANNELS 3 Zrotation Yrotation Xrotation
					JOINT RightToeBase
					{
						OFFSET -0.164730 -0.452590 2.363150
						CHANNELS 3 Zrotation Yrotation Xrotation
						End Site
						{
							OFFSET 0.000000 0.000000 0.000000
						}
					}
				}
			}
		}
	}
}
MOTION
Frames: 11
Frame Time: 0.008333
2.335936 17.023168 -1.179408 138.423782 -82.245113 -132.996899 -10.438493 -0.333364 -0.588639 -3.193263 -2.705328 -26.386313 0.664815 2.142977 46.659010 3.710097 25.881260 13.808344 9.355900 -0.000000 -53.811100 9.924986 0.092266 -1.348716 5.633665 2.297516 -14.873387 1.052788 -1.944397 30.257188 -2.471949 -9.810470 -13.392769 0.664100 0.000000 -56.831400
2.364227 17.022803 -1.217803 137.328085 -82.070587 -132.127138 -10.423498 -0.470473 -0.533446 -3.241492 -3.442667 -27.691396 0.760599 2.238375 49.028310 3.750448 26.072048 15.147321 9.912900 0.000000 -51.890199 9.965878 0.135215 -1.414136 5.497949 2.248554 -14.688050 1.031617 -1.961573 30.332292 -2.465792 -9.792117 -13.416099 0.669400 0.000000 -56.776800
2.393508 17.022927 -1.255009 136.097176 -81.904348 -131.120284 -10.402038 -0.612983 -0.493806 -3.332739 -4.110860 -29.060309 0.847204 2.337053 51.405490 3.785061 26.202899 16.178808 10.329000 -0.000000 -49.910700 10.014121 0.179472 -1.477686 5.337940 2.184392 -14.513168 1.008365 -1.978660 30.403049 -2.460255 -9.779627 -13.431039 0.673199 -0.000000 -56.719800
2.423527 17.023646 -1.291039 134.765591 -81.744362 -130.009520 -10.375290 -0.758664 -0.471148 -3.468191 -4.694905 -30.496153 0.929088 2.441871 53.790479 3.813786 26.282597 16.862221 10.592600 -0.000000 -48.032400 10.069234 0.223991 -1.537339 5.156018 2.103674 -14.349798 0.983831 -1.994788 30.464028 -2.454041 -9.766222 -13.436466 0.674800 0.000000 -56.662000
2.454023 17.025048 -1.325813 133.381661 -81.589666 -128.840498 -10.345502 -0.905516 -0.466544 -3.644969 -5.179756 -32.004915 1.010795 2.555861 56.187787 3.835166 26.305424 17.154137 10.684700 -0.000000 -46.165400 10.129144 0.267382 -1.590764 4.958753 2.008167 -14.198822 0.958819 -2.008807 30.508500 -2.446498 -9.748325 -13.430157 0.673800 -0.000000 -56.604500
2.484808 17.027286 -1.359410 131.963112 -81.437677 -127.628604 -10.312647 -1.053549 -0.477377 -3.862566 -5.569964 -33.583864 1.096198 2.678085 58.580987 3.852300 26.300948 17.097746 10.636500 0.000000 -44.770300 10.193408 0.309364 -1.637058 4.746683 1.896560 -14.061028 0.933749 -2.019902 30.530774 -2.436656 -9.720843 -13.410472 0.669600 -0.000001 -56.550601
2.515633 17.030453 -1.391830 130.541788 -81.287982 -126.402799 -10.277818 -1.202083 -0.502644 -4.116702 -5.863993 -35.235967 1.188042 2.809422 60.967854 3.863715 26.257163 16.690757 10.441600 -0.000000 -43.664900 10.260085 0.349112 -1.674636 4.525426 1.772969 -13.936755 0.908911 -2.027236 30.525593 -2.424755 -9.684706 -13.375450 0.661801 -0.000000 -56.501600
2.546429 17.034628 -1.423124 129.130920 -81.140103 -125.174559 -10.240919 -1.351676 -0.539710 -4.402850 -6.071527 -36.960758 1.287891 2.948963 63.337380 3.869336 26.171871 15.972997 10.114001 -0.000000 -42.852200 10.327845 0.386561 -1.702980 4.298226 1.641433 -13.826030 0.884190 -2.030345 30.489685 -2.411502 -9.643291 -13.323804 0.650400 0.000000 -56.458200
2.576968 17.039897 -1.453369 127.735245 -80.994585 -123.944203 -10.201182 -1.503090 -0.585262 -4.715907 -6.207714 -38.756386 1.396231 3.095180 65.676742 3.868782 26.039261 14.998722 9.672400 0.000000 -42.301700 10.395596 0.421710 -1.721839 4.068180 1.507475 -13.728394 0.859219 -2.028989 30.421199 -2.398218 -9.603034 -13.254833 0.635500 0.000000 -56.419400
2.607355 17.046202 -1.482690 126.343972 -80.852082 -122.701545 -10.157096 -1.657715 -0.636146 -5.051032 -6.292195 -40.620151 1.512709 3.246268 67.973527 3.861683 25.854424 13.834753 9.141500 -0.000000 -41.988800 10.462951 0.455387 -1.732195 3.836848 1.376025 -13.643236 0.833372 -2.023543 30.322394 -2.386482 -9.571831 -13.169363 0.617500 -0.000000 -56.382100
2.637554 17.053495 -1.511155 124.947695 -80.714408 -121.435143 -10.107138 -1.816767 -0.689641 -5.402065 -6.344623 -42.548887 1.636672 3.400649 70.218138 3.847150 25.609021 12.546243 8.545800 0.000000 -41.830600 10.529426 0.488252 -1.735265 3.606770 1.253613 -13.568530 0.805992 -2.014504 30.195895 -2.378254 -9.559501 -13.068271 0.597000 -0.000001 -56.341800
